<svg
  xmlns="http://www.w3.org/2000/svg"
  width="512"
  height="512"
  viewBox="0 0 512 512"
  role="img"
  aria-labelledby="title desc"
>
  <title id="title">Gaia icon</title>
  <desc id="desc">
    A circular scientific knowledge graph surrounding a central reasoning core.
  </desc>
  <defs>
    <linearGradient id="gaia-bg" x1="96" y1="64" x2="416" y2="448" gradientUnits="userSpaceOnUse">
      <stop offset="0" stop-color="#0b1f33" />
      <stop offset="0.58" stop-color="#123a45" />
      <stop offset="1" stop-color="#173f2f" />
    </linearGradient>
    <linearGradient id="gaia-ring" x1="112" y1="96" x2="400" y2="416" gradientUnits="userSpaceOnUse">
      <stop offset="0" stop-color="#67e8c9" />
      <stop offset="0.52" stop-color="#a7f3d0" />
      <stop offset="1" stop-color="#f4c95d" />
    </linearGradient>
    <radialGradient id="gaia-core" cx="50%" cy="42%" r="58%">
      <stop offset="0" stop-color="#ffffff" />
      <stop offset="0.72" stop-color="#eef9f4" />
      <stop offset="1" stop-color="#b9ead7" />
    </radialGradient>
    <filter id="soft-shadow" x="-20%" y="-20%" width="140%" height="140%">
      <feDropShadow dx="0" dy="14" stdDeviation="18" flood-color="#03121c" flood-opacity="0.32" />
    </filter>
  </defs>

  <rect width="512" height="512" rx="116" fill="url(#gaia-bg)" />
  <circle cx="256" cy="256" r="178" fill="none" stroke="#d6f8ee" stroke-opacity="0.14" stroke-width="34" />
  <circle cx="256" cy="256" r="178" fill="none" stroke="url(#gaia-ring)" stroke-width="18" />

  <g stroke-linecap="round" stroke-linejoin="round">
    <path d="M150 160L256 122L364 170L382 294L294 386L164 344Z" fill="none" stroke="#e6fff7" stroke-opacity="0.56" stroke-width="12" />
    <path d="M150 160L294 386M256 122L164 344M364 170L164 344M382 294L150 160" fill="none" stroke="#67e8c9" stroke-opacity="0.26" stroke-width="7" />
    <path d="M150 160L256 256L364 170M256 256L382 294M256 256L294 386M256 256L164 344" fill="none" stroke="#f4c95d" stroke-opacity="0.5" stroke-width="8" />
  </g>

  <g filter="url(#soft-shadow)">
    <circle cx="256" cy="256" r="92" fill="url(#gaia-core)" />
    <circle cx="256" cy="256" r="69" fill="none" stroke="#113847" stroke-width="18" stroke-linecap="round" stroke-dasharray="302 94" transform="rotate(-28 256 256)" />
    <path d="M258 213C285 213 306 229 314 252H264" fill="none" stroke="#113847" stroke-width="18" stroke-linecap="round" stroke-linejoin="round" />
    <circle cx="256" cy="256" r="19" fill="#f4c95d" stroke="#113847" stroke-width="8" />
  </g>

  <g stroke="#0b1f33" stroke-width="9">
    <circle cx="150" cy="160" r="25" fill="#67e8c9" />
    <circle cx="256" cy="122" r="25" fill="#a7f3d0" />
    <circle cx="364" cy="170" r="25" fill="#f4c95d" />
    <circle cx="382" cy="294" r="25" fill="#67e8c9" />
    <circle cx="294" cy="386" r="25" fill="#a7f3d0" />
    <circle cx="164" cy="344" r="25" fill="#f4c95d" />
  </g>
</svg>
